<svg width="38" height="34" viewBox="0 0 38 34" fill="none" xmlns="http://www.w3.org/2000/svg">
<path d="M35.9905 7.06143C36.4989 7.02326 36.9741 6.79387 37.3209 6.41924C37.6677 6.04461 37.8604 5.55243 37.8604 5.04137C37.8604 4.53031 37.6677 4.03813 37.3209 3.6635C36.9741 3.28887 36.4989 3.05948 35.9905 3.02131H14.6762C14.9349 3.66134 15.0691 4.34512 15.0713 5.03571C15.0678 5.72985 14.9337 6.41709 14.6762 7.06143H35.9905ZM2.00951 7.06143H4.84314C4.57659 6.4194 4.4385 5.73112 4.43672 5.03571C4.43731 4.34384 4.57547 3.65903 4.84314 3.02131H2.00951C1.50111 3.05948 1.02589 3.28887 0.679121 3.6635C0.332348 4.03813 0.139646 4.53031 0.139646 5.04137C0.139646 5.55243 0.332348 6.04461 0.679121 6.41924C1.02589 6.79387 1.50111 7.02326 2.00951 7.06143ZM9.77659 9.18901C10.5965 9.19125 11.3987 8.94957 12.0815 8.49456C12.7643 8.03955 13.2971 7.39168 13.6124 6.63297C13.9278 5.87425 14.0114 5.03881 13.8528 4.2324C13.6942 3.426 13.3005 2.6849 12.7216 2.10291C12.1426 1.52093 11.4043 1.12424 10.6003 0.963069C9.79633 0.801894 8.96269 0.88348 8.20496 1.1975C7.44724 1.51152 6.79949 2.04384 6.34373 2.72709C5.88797 3.41034 5.64468 4.21379 5.64468 5.03571C5.64468 6.13528 6.07964 7.18997 6.8542 7.96854C7.62876 8.74711 8.6797 9.18601 9.77659 9.18901ZM2.00951 19.1592H18.6049C18.3372 18.5215 18.199 17.8366 18.1985 17.1448C18.2002 16.4494 18.3383 15.7611 18.6049 15.1191H2.00951C1.50111 15.1572 1.02589 15.3866 0.679121 15.7612C0.332348 16.1359 0.139646 16.6281 0.139646 17.1391C0.139646 17.6502 0.332348 18.1424 0.679121 18.517C1.02589 18.8916 1.50111 19.121 2.00951 19.1592ZM35.9905 15.1191H28.4831C28.7406 15.7634 28.8747 16.4506 28.8782 17.1448C28.876 17.8354 28.7418 18.5192 28.4831 19.1592H35.9905C36.4989 19.121 36.9741 18.8916 37.3209 18.517C37.6677 18.1424 37.8604 17.6502 37.8604 17.1391C37.8604 16.6281 37.6677 16.1359 37.3209 15.7612C36.9741 15.3866 36.4989 15.1572 35.9905 15.1191ZM19.4064 17.1448C19.4086 17.9635 19.6529 18.7632 20.1082 19.4428C20.5636 20.1225 21.2097 20.6516 21.9649 20.9634C22.7201 21.2751 23.5506 21.3556 24.3513 21.1945C25.1521 21.0334 25.8873 20.638 26.464 20.0583C27.0407 19.4786 27.4331 18.7405 27.5916 17.9374C27.7502 17.1342 27.6677 16.302 27.3546 15.5458C27.0416 14.7896 26.512 14.1434 25.8327 13.6888C25.1535 13.2341 24.3551 12.9915 23.5383 12.9915C22.9948 12.9915 22.4565 13.099 21.9545 13.3078C21.4525 13.5167 20.9965 13.8228 20.6126 14.2086C20.2288 14.5945 19.9247 15.0524 19.7177 15.5562C19.5107 16.0601 19.4049 16.5999 19.4064 17.1448ZM2.00951 27.7034C1.47655 27.7034 0.965427 27.9157 0.588571 28.2934C0.211715 28.6712 0 29.1836 0 29.7178C0 30.2521 0.211715 30.7645 0.588571 31.1422C0.965427 31.52 1.47655 31.7322 2.00951 31.7322H5.78015C5.25316 30.4413 5.25316 28.9944 5.78015 27.7034H2.00951ZM35.9905 27.7034H15.6696C15.9379 28.341 16.0761 29.0259 16.0761 29.7178C16.0761 30.4098 15.9379 31.0947 15.6696 31.7322H35.9905C36.5234 31.7322 37.0346 31.52 37.4114 31.1422C37.7883 30.7645 38 30.2521 38 29.7178C38 29.1836 37.7883 28.6712 37.4114 28.2934C37.0346 27.9157 36.5234 27.7034 35.9905 27.7034ZM10.7249 25.5759C9.90449 25.5736 9.10189 25.8156 8.41882 26.2711C7.73575 26.7266 7.20296 27.3751 6.88797 28.1345C6.57298 28.8939 6.48998 29.7299 6.64949 30.5366C6.80899 31.3433 7.20382 32.0844 7.78394 32.666C8.36405 33.2475 9.10334 33.6433 9.90809 33.8032C10.7128 33.9631 11.5468 33.8799 12.3044 33.5641C13.0619 33.2484 13.7089 32.7143 14.1633 32.0295C14.6177 31.3448 14.859 30.5402 14.8568 29.7178C14.8568 28.6193 14.4215 27.5658 13.6466 26.789C12.8717 26.0122 11.8207 25.5759 10.7249 25.5759Z" fill="black"/>
</svg>
