<svg width="14" height="15" viewBox="0 0 14 15" fill="none" xmlns="http://www.w3.org/2000/svg">
<path fill-rule="evenodd" clip-rule="evenodd" d="M7.44361 2.71616V3.24688C7.43405 3.71757 6.67276 3.98585 6.43211 3.4716C6.40006 3.40097 6.38306 3.32444 6.38217 3.24688V2.71616H4.79055C4.38202 2.69651 4.10842 2.1626 4.38945 1.83801C4.48614 1.72644 4.56423 1.66588 4.79055 1.65473C5.32073 1.65473 5.85145 1.65313 6.38217 1.64994V1.12454C6.38077 1.06795 6.38977 1.01159 6.40873 0.958256C6.47886 0.745225 6.6887 0.593819 6.92351 0.593819C7.20667 0.604975 7.43723 0.816944 7.44361 1.12454V1.64357C8.50451 1.63719 9.56595 1.63135 10.6274 1.63666V1.12454C10.6327 0.84085 10.8399 0.606037 11.1475 0.593819H11.1682C11.4519 0.604975 11.6825 0.816944 11.6883 1.12454V1.64622L12.2583 1.65526C13.0717 1.68076 13.7952 2.38041 13.8106 3.22722C13.8308 6.42376 13.8308 9.62082 13.8106 12.8179C13.7958 13.6387 13.0855 14.3739 12.2387 14.3898C8.68833 14.4116 5.13745 14.4116 1.58711 14.3898C0.769516 14.3744 0.0310781 13.6785 0.0151406 12.8179C-0.00504687 9.62082 -0.00504687 6.42376 0.0151406 3.22722C0.0300156 2.4006 0.738172 1.66057 1.60517 1.65473H2.13748V1.12454C2.13581 1.06793 2.14482 1.01152 2.16405 0.958256C2.23417 0.745225 2.44402 0.593819 2.6783 0.593819C2.96198 0.604975 3.19255 0.816944 3.19839 1.12454V3.24688C3.18936 3.71704 2.44986 3.98054 2.19645 3.49073C2.15829 3.41507 2.13811 3.33162 2.13748 3.24688V2.71404C1.95615 2.71262 1.7748 2.71333 1.59348 2.71616C1.32414 2.72466 1.08455 2.96054 1.07605 3.2336C1.01681 6.42578 1.01681 9.61879 1.07605 12.811C1.08455 13.0808 1.32042 13.3199 1.59348 13.3284C5.13945 13.3943 8.68633 13.3943 12.2323 13.3284C12.5016 13.3199 12.7412 13.084 12.7497 12.811C12.8087 9.61922 12.8087 6.42535 12.7497 3.2336C12.7417 3.09644 12.6826 2.96726 12.5841 2.87149C12.4856 2.77572 12.3548 2.72031 12.2174 2.71616H11.6883V3.24688C11.6793 3.71279 10.9376 3.97576 10.6864 3.49073C10.6484 3.41498 10.6283 3.33159 10.6274 3.24688V2.71616H7.44361ZM2.66767 11.2061C2.73881 11.2038 2.80968 11.2159 2.87607 11.2416C2.94246 11.2672 3.00301 11.306 3.05413 11.3555C3.10525 11.405 3.1459 11.4643 3.17366 11.5299C3.20142 11.5954 3.21572 11.6659 3.21572 11.7371C3.21572 11.8082 3.20142 11.8787 3.17366 11.9442C3.1459 12.0098 3.10525 12.0691 3.05413 12.1186C3.00301 12.1681 2.94246 12.2069 2.87607 12.2325C2.80968 12.2582 2.73881 12.2703 2.66767 12.268C2.52975 12.2637 2.39894 12.2058 2.30293 12.1067C2.20691 12.0076 2.15322 11.875 2.15322 11.7371C2.15322 11.5991 2.20691 11.4665 2.30293 11.3674C2.39894 11.2683 2.52975 11.2104 2.66767 11.2061ZM4.79055 11.2061C4.86224 11.2029 4.93383 11.2144 5.00099 11.2396C5.06815 11.2649 5.12949 11.3036 5.1813 11.3532C5.23312 11.4029 5.27434 11.4625 5.30248 11.5285C5.33061 11.5945 5.34508 11.6656 5.34501 11.7373C5.34494 11.8091 5.33033 11.8801 5.30206 11.9461C5.27379 12.012 5.23245 12.0716 5.18054 12.1211C5.12862 12.1707 5.0672 12.2092 4.99999 12.2343C4.93278 12.2595 4.86117 12.2708 4.78948 12.2675C4.65284 12.2613 4.52388 12.2025 4.42944 12.1036C4.335 12.0046 4.28237 11.8731 4.28251 11.7363C4.28265 11.5995 4.33554 11.468 4.43017 11.3693C4.52481 11.2705 4.65389 11.212 4.79055 11.2061ZM6.91289 11.2061C7.04954 11.2122 7.17856 11.2708 7.27309 11.3696C7.36763 11.4685 7.42039 11.6 7.42039 11.7368C7.42039 11.8736 7.36763 12.0051 7.27309 12.1039C7.17856 12.2028 7.04954 12.2614 6.91289 12.2675C6.77624 12.2614 6.64722 12.2028 6.55269 12.1039C6.45815 12.0051 6.40539 11.8736 6.40539 11.7368C6.40539 11.6 6.45815 11.4685 6.55269 11.3696C6.64722 11.2708 6.77624 11.2122 6.91289 11.2061ZM2.66767 9.08372C2.73874 9.08148 2.80954 9.09353 2.87587 9.11918C2.94219 9.14482 3.00268 9.18353 3.05375 9.23301C3.10482 9.28249 3.14543 9.34173 3.17316 9.40721C3.20089 9.47269 3.21518 9.54307 3.21518 9.61418C3.21518 9.68529 3.20089 9.75567 3.17316 9.82115C3.14543 9.88663 3.10482 9.94586 3.05375 9.99534C3.00268 10.0448 2.94219 10.0835 2.87587 10.1092C2.80954 10.1348 2.73874 10.1469 2.66767 10.1446C2.52989 10.1403 2.39922 10.0825 2.3033 9.98347C2.20738 9.88447 2.15374 9.75203 2.15374 9.61418C2.15374 9.47633 2.20738 9.34389 2.3033 9.24489C2.39922 9.14588 2.52989 9.08809 2.66767 9.08372ZM4.79055 9.08372C4.93123 9.08372 5.06615 9.13961 5.16563 9.23909C5.26511 9.33857 5.321 9.47349 5.321 9.61418C5.321 9.75486 5.26511 9.88979 5.16563 9.98927C5.06615 10.0887 4.93123 10.1446 4.79055 10.1446C4.64986 10.1446 4.51494 10.0887 4.41546 9.98927C4.31598 9.88979 4.26009 9.75486 4.26009 9.61418C4.26009 9.47349 4.31598 9.33857 4.41546 9.23909C4.51494 9.13961 4.64986 9.08372 4.79055 9.08372ZM6.91289 9.08372C6.98403 9.08148 7.0549 9.09354 7.12129 9.11921C7.18768 9.14489 7.24823 9.18364 7.29935 9.23317C7.35047 9.28269 7.39112 9.34199 7.41888 9.40753C7.44663 9.47308 7.46094 9.54353 7.46094 9.61471C7.46094 9.68589 7.44663 9.75634 7.41888 9.82188C7.39112 9.88743 7.35047 9.94672 7.29935 9.99625C7.24823 10.0458 7.18768 10.0845 7.12129 10.1102C7.0549 10.1359 6.98403 10.1479 6.91289 10.1457C6.77497 10.1413 6.64416 10.0835 6.54814 9.98437C6.45213 9.88527 6.39844 9.7527 6.39844 9.61471C6.39844 9.47672 6.45213 9.34415 6.54814 9.24505C6.64416 9.14594 6.77497 9.08809 6.91289 9.08372ZM9.03523 9.08372C9.10638 9.08148 9.17725 9.09354 9.24363 9.11921C9.31002 9.14489 9.37057 9.18364 9.42169 9.23317C9.47282 9.28269 9.51346 9.34199 9.54122 9.40753C9.56898 9.47308 9.58328 9.54353 9.58328 9.61471C9.58328 9.68589 9.56898 9.75634 9.54122 9.82188C9.51346 9.88743 9.47282 9.94672 9.42169 9.99625C9.37057 10.0458 9.31002 10.0845 9.24363 10.1102C9.17725 10.1359 9.10638 10.1479 9.03523 10.1457C8.89732 10.1413 8.76651 10.0835 8.67049 9.98437C8.57447 9.88527 8.52078 9.7527 8.52078 9.61471C8.52078 9.47672 8.57447 9.34415 8.67049 9.24505C8.76651 9.14594 8.89732 9.08809 9.03523 9.08372ZM11.1576 9.08372C11.2287 9.08148 11.2994 9.09353 11.3658 9.11918C11.4321 9.14482 11.4926 9.18353 11.5437 9.23301C11.5947 9.28249 11.6353 9.34173 11.6631 9.40721C11.6908 9.47269 11.7051 9.54307 11.7051 9.61418C11.7051 9.68529 11.6908 9.75567 11.6631 9.82115C11.6353 9.88663 11.5947 9.94586 11.5437 9.99534C11.4926 10.0448 11.4321 10.0835 11.3658 10.1092C11.2994 10.1348 11.2287 10.1469 11.1576 10.1446C11.0198 10.1403 10.8891 10.0825 10.7932 9.98347C10.6973 9.88447 10.6436 9.75203 10.6436 9.61418C10.6436 9.47633 10.6973 9.34389 10.7932 9.24489C10.8891 9.14588 11.0198 9.08809 11.1576 9.08372ZM4.79055 6.96138C4.86017 6.96138 4.92911 6.97509 4.99344 7.00174C5.05777 7.02838 5.11621 7.06744 5.16545 7.11667C5.21468 7.1659 5.25373 7.22435 5.28038 7.28867C5.30702 7.353 5.32073 7.42194 5.32073 7.49157C5.32073 7.56119 5.30702 7.63014 5.28038 7.69446C5.25373 7.75879 5.21468 7.81724 5.16545 7.86647C5.11621 7.9157 5.05777 7.95475 4.99344 7.9814C4.92911 8.00804 4.86017 8.02176 4.79055 8.02176C4.64993 8.02176 4.51508 7.9659 4.41565 7.86647C4.31622 7.76704 4.26036 7.63218 4.26036 7.49157C4.26036 7.35095 4.31622 7.2161 4.41565 7.11667C4.51508 7.01724 4.64993 6.96138 4.79055 6.96138ZM6.91289 6.96138C6.98458 6.95817 7.05618 6.96952 7.12337 6.99475C7.19055 7.01997 7.25193 7.05855 7.3038 7.10814C7.35567 7.15774 7.39695 7.21733 7.42515 7.28332C7.45335 7.34931 7.46789 7.42034 7.46789 7.4921C7.46789 7.56386 7.45335 7.63488 7.42515 7.70088C7.39695 7.76687 7.35567 7.82646 7.3038 7.87606C7.25193 7.92565 7.19055 7.96423 7.12337 7.98945C7.05618 8.01468 6.98458 8.02603 6.91289 8.02282C6.77624 8.0167 6.64722 7.95812 6.55269 7.85926C6.45815 7.7604 6.40539 7.62888 6.40539 7.4921C6.40539 7.35532 6.45815 7.2238 6.55269 7.12494C6.64722 7.02608 6.77624 6.9675 6.91289 6.96138ZM9.03523 6.96138C9.10693 6.95817 9.17853 6.96952 9.24571 6.99475C9.3129 7.01997 9.37428 7.05855 9.42614 7.10814C9.47801 7.15774 9.51929 7.21733 9.54749 7.28332C9.5757 7.34931 9.59024 7.42034 9.59024 7.4921C9.59024 7.56386 9.5757 7.63488 9.54749 7.70088C9.51929 7.76687 9.47801 7.82646 9.42614 7.87606C9.37428 7.92565 9.3129 7.96423 9.24571 7.98945C9.17853 8.01468 9.10693 8.02603 9.03523 8.02282C8.89859 8.0167 8.76956 7.95812 8.67503 7.85926C8.5805 7.7604 8.52774 7.62888 8.52774 7.4921C8.52774 7.35532 8.5805 7.2238 8.67503 7.12494C8.76956 7.02608 8.89859 6.9675 9.03523 6.96138ZM11.1576 6.96138C11.2983 6.96131 11.4332 7.01713 11.5327 7.11656C11.6323 7.21599 11.6882 7.35088 11.6883 7.49157C11.6884 7.63225 11.6325 7.7672 11.5331 7.86673C11.4337 7.96626 11.2988 8.02222 11.1581 8.02229C11.0884 8.02232 11.0195 8.00864 10.9551 7.98201C10.8907 7.95538 10.8322 7.91634 10.7829 7.86711C10.7337 7.81788 10.6946 7.75942 10.6679 7.69508C10.6412 7.63073 10.6274 7.56176 10.6274 7.4921C10.6274 7.42244 10.641 7.35346 10.6677 7.28908C10.6943 7.22471 10.7333 7.16622 10.7826 7.11694C10.8318 7.06765 10.8903 7.02855 10.9546 7.00186C11.0189 6.97517 11.0879 6.96142 11.1576 6.96138Z" fill="#F69008"/>
</svg>
