<svg width="254" height="254" viewBox="0 0 254 254" fill="none" xmlns="http://www.w3.org/2000/svg">
<g clip-path="url(#clip0_3_58)">
<mask id="mask0_3_58" style="mask-type:luminance" maskUnits="userSpaceOnUse" x="0" y="0" width="254" height="254">
<path d="M254 0H0V254H254V0Z" fill="white"/>
</mask>
<g mask="url(#mask0_3_58)">
<path d="M217.164 126.357C214.215 124.175 210.924 122.317 208.425 119.701C206.143 117.318 204.529 114.237 202.961 111.281C199.748 105.197 195.96 99.5783 190.682 95.0893C184.427 89.7644 177.286 86.7614 168.904 87.2877C167.771 87.3651 166.653 87.5508 165.349 87.7211C166.358 78.1704 163.285 70.1985 157.277 63.2329C152.589 57.8151 146.753 53.9608 140.388 50.7875C134.335 47.7845 129.491 43.636 127.349 36.9645C127.318 36.8871 127.101 36.8561 126.728 36.7168C124.446 44.9363 117.849 48.7907 110.849 52.289C108.893 53.2642 107.014 54.4716 105.229 55.7409C96.7228 61.7468 90.4827 69.3627 88.8217 79.9505C88.4336 82.4272 88.7596 85.0123 88.7596 87.4425C88.2008 87.5973 88.0456 87.6747 87.9214 87.6592C79.3373 86.1268 71.8087 88.6499 65.0563 93.7735C58.9092 98.4328 54.6404 104.594 51.0857 111.343C49.4558 114.423 47.7017 117.612 45.3268 120.088C42.9518 122.581 39.723 124.268 36.8513 126.311C36.7116 126.125 36.7737 126.311 36.8823 126.342C43.9297 128.648 47.7483 134.097 51.0392 140.289C53.2279 144.406 55.665 148.508 58.6609 152.038C66.5465 161.356 76.3103 166.588 89.1787 164.22C89.0856 164.916 88.9769 165.628 88.8838 166.325C88.7751 167.053 88.6354 167.765 88.6044 168.492C88.1542 177.687 91.7866 185.287 97.9026 191.881C102.358 196.68 107.759 200.163 113.581 203.057C119.603 206.076 124.571 210.085 126.666 216.834C126.713 216.973 126.992 217.051 127.349 217.267C129.507 209.574 135.39 205.658 141.925 202.268C144.906 200.72 147.824 198.955 150.494 196.943C158.271 191.123 163.843 183.739 165.256 173.894C165.706 170.706 165.334 167.409 165.334 164.204C174.414 166.48 183.294 162.672 188.897 158.415C195.231 153.601 199.701 147.316 203.163 140.258C206.221 134.051 210.101 128.679 217.102 126.435C217.273 126.373 217.382 126.141 217.18 126.357H217.164Z" stroke="#DFAE8E" stroke-width="0.63" stroke-linecap="round" stroke-linejoin="round"/>
<path d="M253.364 126.094C249.234 123.029 244.624 120.429 241.116 116.776C237.918 113.448 235.652 109.113 233.463 104.965C228.962 96.4359 223.653 88.5724 216.248 82.2723C207.478 74.8113 197.466 70.5854 185.715 71.3439C184.132 71.4523 182.564 71.7154 180.732 71.9476C182.145 58.5735 177.845 47.3974 169.416 37.63C162.85 30.0296 154.654 24.6274 145.744 20.2003C137.268 15.9899 130.485 10.1697 127.473 0.835662C127.442 0.711828 127.116 0.696348 126.604 0.495117C123.406 12.0117 114.155 17.414 104.344 22.3209C101.597 23.6986 98.9739 25.3704 96.4592 27.1505C84.5377 35.5712 75.7828 46.252 73.4544 61.0811C72.9111 64.5485 73.3768 68.1861 73.3768 71.5761C72.5851 71.7773 72.3833 71.9012 72.1971 71.8702C60.1669 69.7186 49.6269 73.2634 40.1424 80.4303C31.5117 86.9471 25.551 95.6 20.5526 105.058C18.2708 109.377 15.8182 113.835 12.4808 117.333C9.14331 120.816 4.61065 123.184 0.60576 126.048C0.403963 125.769 0.4971 126.048 0.652329 126.094C10.5249 129.329 15.8802 136.961 20.4905 145.629C23.5485 151.387 26.9791 157.146 31.1702 162.099C42.2225 175.148 55.9136 182.485 73.9511 179.173C73.8114 180.148 73.6717 181.139 73.532 182.114C73.3923 183.12 73.1905 184.142 73.1284 185.148C72.5075 198.042 77.5835 208.692 86.1676 217.933C92.4078 224.651 99.9829 229.527 108.132 233.614C116.576 237.839 123.546 243.458 126.464 252.916C126.527 253.117 126.915 253.21 127.427 253.52C130.438 242.746 138.712 237.251 147.855 232.515C152.031 230.347 156.113 227.871 159.87 225.053C170.767 216.88 178.59 206.556 180.546 192.748C181.182 188.275 180.639 183.646 180.639 179.157C193.368 182.362 205.802 177.021 213.672 171.046C222.551 164.313 228.806 155.489 233.681 145.614C237.965 136.914 243.398 129.391 253.208 126.234C253.457 126.156 253.612 125.816 253.332 126.125L253.364 126.094Z" stroke="#DFAE8E" stroke-width="0.63" stroke-linecap="round" stroke-linejoin="round"/>
</g>
</g>
<defs>
<clipPath id="clip0_3_58">
<rect width="254" height="254" fill="white"/>
</clipPath>
</defs>
</svg>
